<svg opacity=".9" width="1920" height="1024" fill="none" xmlns="http://www.w3.org/2000/svg"><g clip-path="url(#clip0_11_2)"><path fill="#303030" d="M0 0h1920v1024H0z"/><rect opacity=".3" x="-73" y="123" width="406" height="90" rx="16" fill="#5E5E5E"/><rect opacity=".3" x="1273" y="123" width="406" height="90" rx="16" fill="#5E5E5E"/><rect opacity=".3" x="-73" y="245" width="474" height="60" rx="16" fill="#5E5E5E"/><rect opacity=".3" x="1273" y="245" width="474" height="60" rx="16" fill="#5E5E5E"/><rect opacity=".3" x="-134" y="337" width="467" height="60" rx="16" fill="#5E5E5E"/><rect opacity=".3" x="1212" y="337" width="467" height="60" rx="16" fill="#5E5E5E"/><rect opacity=".3" x="93" y="487" width="406" height="90" rx="16" fill="#5E5E5E"/><rect opacity=".3" x="563" y="123" width="359" height="60" rx="16" fill="#5E5E5E"/><rect opacity=".3" x="1273" y="577" width="359" height="60" rx="16" fill="#5E5E5E"/><rect opacity=".3" x="153" y="667" width="359" height="60" rx="16" fill="#5E5E5E"/><rect opacity=".3" x="563" y="215" width="252" height="90" rx="16" fill="#5E5E5E"/><rect opacity=".3" x="1273" y="669" width="252" height="90" rx="16" fill="#5E5E5E"/><rect opacity=".3" x="260" y="759" width="252" height="90" rx="16" fill="#5E5E5E"/></g><defs><clipPath id="clip0_11_2"><path fill="#fff" d="M0 0h1920v1024H0z"/></clipPath></defs></svg>